<svg version="1.1" xmlns="http://www.w3.org/2000/svg" x="0" y="0" width="73.5" height="35.5" xml:space="preserve"><g><g transform="translate(-50 -31)"><g><g transform="translate(50 7)"><g><g transform="translate(0 24)"><g transform="translate(61.22)"><path fill="#004b85" d="M7.2.2C5.3.2 3.8.7 2.6 1.8 1.5 2.9.7 4 .3 5.3c-.1.3-.1.6-.2.9 0 .3-.1.6-.1.9 0 1.4.5 2.5 1.5 3.4s2.2 1.3 3.7 1.3c1.9 0 3.5-.6 4.9-1.9S12.2 7 12.2 5c0-1.4-.5-2.5-1.4-3.4C10 .7 8.7.2 7.2.2zm1.6 8.5c-1 1.1-2.2 1.7-3.5 1.7-1 0-1.8-.3-2.4-.8C2.3 9 2 8.2 2 7.2c0-.3 0-.5.1-.8 0-.3.1-.5.2-.8.3-1 .8-2 1.6-2.8s1.9-1.2 3.2-1.2c1 0 1.7.3 2.3.8.6.5.9 1.3.9 2.3 0 1.5-.5 2.9-1.5 4z"/></g><path d="M2.1 3.2s7.2-1.9 15.1-1 13.2 6.6 21.5 9.3c14.6 6.5 32.4-1.4 32.4-1.4s-14 11.6-31.4 8.6c-8.2-1.4-10.3-2.9-16.2-3.4-7.1-.7-21.5 4-21.5 4l.1-16.1z" fill="#00b6dc"/><path d="M71.7 14.6v14.9s-9.9 2.3-21.6 1.1c-6-.6-12.6-2.4-22.9-7.7-13.5-7.6-26.8-.1-27-.4-.1-.3 10.5-5.7 21.4-4.7 11.1 1.8 15.1 2.4 18.1 2.7 1.6.1 4 .5 6.3.5 3.5 0 6.7-.4 7-.4 8.8-1.3 18.7-6 18.7-6" fill="#89d4e5"/><path d="M71.8 32.7c-.2-.1-.8 0-1.7 0-3.9 0-13.3 1.1-17.3.7-16.9-.6-21.5-7-30-10.6-5.9-2.7-8.7-2-9.7-2C9.7 20.6 2 24.5 2 24.5s-1.1 5.8 15.1 9.4c5.5 1.1 16.7 2 28.9 1.4 11-.5 23.5-1.6 25.5-2.4.3-.1.4-.2.3-.2" fill="#137768"/><path d="M40.9.3H39l-1.5 8.3L30.2.3h-1s-.6 2.7-1.1 5.4c-.5 2.9-1.3 5.8-1.1 5.8h2l1.5-8.2 7.2 8.2h1L40.9.3z" fill="#224a86"/><path fill="#004b85" d="M46 .3h-2l-2.1 11.3h2z"/><g transform="translate(47.178)"><path fill="#004b85" d="M7.2.2C5.3.2 3.8.7 2.6 1.8 1.5 2.9.7 4 .4 5.3c-.1.3-.2.6-.2.9 0 .3-.1.6-.1.9 0 1.4.5 2.5 1.5 3.4s2.2 1.3 3.7 1.3c1.9 0 3.5-.6 4.9-1.9S12.3 7 12.3 5c0-1.4-.5-2.5-1.4-3.4C10 .7 8.7.2 7.2.2zm1.7 8.5c-1 1.1-2.2 1.7-3.5 1.7-1 0-1.8-.3-2.4-.8-.6-.6-.9-1.4-.9-2.4 0-.3 0-.5.1-.8 0-.3.1-.5.2-.8.3-1 .8-2 1.6-2.8.7-.8 1.8-1.2 3.2-1.2 1 0 1.7.3 2.3.8s.9 1.3.9 2.3c0 1.5-.5 2.9-1.5 4z"/></g></g></g></g></g></g></g></svg>
